# xmcd
#
# Track frame offsets:
#	150
#	16886
#	34567
#	49033
#	65592
#	82998
#	97940
#	114261
#	130103
#	149193
#	165503
#	179927
#	195933
#	207927
#
# Disc length: 2954 seconds
#
# Revision: 1
# Processed by: cddbd v1.5.2PL0 Copyright (c) Steve Scherf et al.
# Submitted via: EasyCDDAExtractor 15.2.5.1
#
DISCID=ba0b880e
DTITLE=Roger Knox - Goin' On, Still Strong
DYEAR=2007
DGENRE=Country
TTITLE0=Mothers Eyes
TTITLE1=I Am
TTITLE2=First Born
TTITLE3=There You Go
TTITLE4=Murri Man
TTITLE5=King Bunerwal
TTITLE6=Streets Of Tamworth
TTITLE7=Black Tracks
TTITLE8=Murri's Plea
TTITLE9=Malabar Mansion
TTITLE10=Friendship Road
TTITLE11=Koorie Rose
TTITLE12=Life and Culture
TTITLE13=Brighter Day
EXTD=
EXTT0=
EXTT1=
EXTT2=
EXTT3=
EXTT4=
EXTT5=
EXTT6=
EXTT7=
EXTT8=
EXTT9=
EXTT10=
EXTT11=
EXTT12=
EXTT13=
PLAYORDER=
